<svg height="512pt" viewBox="-20 0 512 512.00048" width="512pt" xmlns="http://www.w3.org/2000/svg"><path d="m375.324219 134.742188c-44.011719 0-81.125 5.113281-92.628907 63.738281h-93.753906c-11.503906-58.625-48.617187-63.738281-92.628906-63.738281-53.191406 0-96.3125 7.464843-96.3125 107.84375 0 100.375 43.121094 228.160156 96.3125 228.160156 39.816406 0 73.984375-71.597656 88.65625-149.707032h101.703125c14.667969 78.109376 48.839844 149.707032 88.652344 149.707032 53.191406 0 96.3125-127.785156 96.3125-228.160156 0-100.378907-43.121094-107.84375-96.3125-107.84375zm0 0" fill="#ff6914"/><path d="m286.511719 321.039062c-2.257813-12.011718-4.050781-24.179687-5.332031-36.265624-.269532-2.550782-2.40625-4.492188-4.96875-4.492188h-85.457032c1.222656-12.785156 1.871094-25.445312 1.871094-37.695312 0-100.378907-43.121094-107.84375-96.3125-107.84375-7.425781 0-14.652344.144531-21.597656.667968 42.792968 3.226563 74.714844 20.8125 74.714844 107.175782 0 86.363281-31.921876 193.011718-74.714844 221.109374 6.945312 4.558594 14.171875 7.050782 21.597656 7.050782 39.816406 0 73.984375-71.597656 88.65625-149.707032zm0 0" fill="#ed500a"/><path d="m375.324219 134.742188c-7.425781 0-14.652344.144531-21.597657.667968 42.792969 3.226563 74.714844 20.8125 74.714844 107.175782 0 86.363281-31.921875 193.011718-74.714844 221.109374 6.945313 4.558594 14.171876 7.050782 21.597657 7.050782 53.191406 0 96.3125-127.785156 96.3125-228.160156s-43.121094-107.84375-96.3125-107.84375zm0 0" fill="#ed500a"/><g fill="#1dc2ff"><path d="m393.992188 227.476562c0 10.3125-8.355469 18.667969-18.667969 18.667969-10.308594 0-18.667969-8.355469-18.667969-18.667969 0-10.308593 8.359375-18.667968 18.667969-18.667968 10.3125 0 18.667969 8.359375 18.667969 18.667968zm0 0"/><path d="m393.992188 313.210938c0 10.308593-8.355469 18.667968-18.667969 18.667968-10.308594 0-18.667969-8.359375-18.667969-18.667968 0-10.3125 8.359375-18.667969 18.667969-18.667969 10.3125 0 18.667969 8.355469 18.667969 18.667969zm0 0"/><path d="m436.859375 270.34375c0 10.308594-8.359375 18.667969-18.667969 18.667969s-18.667968-8.359375-18.667968-18.667969 8.359374-18.667969 18.667968-18.667969 18.667969 8.359375 18.667969 18.667969zm0 0"/><path d="m351.125 270.34375c0 10.308594-8.355469 18.667969-18.667969 18.667969-10.308593 0-18.667969-8.359375-18.667969-18.667969s8.359376-18.667969 18.667969-18.667969c10.3125 0 18.667969 8.359375 18.667969 18.667969zm0 0"/></g><path d="m375.324219 208.808594c-1.882813 0-3.699219.285156-5.414063.804687 7.664063 2.324219 13.25 9.441407 13.25 17.863281 0 8.425782-5.585937 15.542969-13.25 17.863282 1.714844.519531 3.53125.804687 5.414063.804687 10.3125 0 18.667969-8.355469 18.667969-18.667969 0-10.308593-8.359376-18.667968-18.667969-18.667968zm0 0" fill="#00a2ff"/><path d="m375.324219 294.542969c-1.882813 0-3.699219.285156-5.414063.804687 7.664063 2.320313 13.25 9.4375 13.25 17.863282 0 8.425781-5.585937 15.539062-13.25 17.863281 1.714844.519531 3.53125.804687 5.414063.804687 10.3125 0 18.667969-8.359375 18.667969-18.667968 0-10.3125-8.359376-18.667969-18.667969-18.667969zm0 0" fill="#00a2ff"/><path d="m418.191406 251.675781c-1.886718 0-3.703125.285157-5.417968.804688 7.667968 2.324219 13.25 9.4375 13.25 17.863281s-5.582032 15.542969-13.25 17.863281c1.714843.519531 3.53125.804688 5.417968.804688 10.308594 0 18.667969-8.359375 18.667969-18.667969s-8.359375-18.667969-18.667969-18.667969zm0 0" fill="#00a2ff"/><path d="m332.457031 251.675781c-1.882812 0-3.699219.285157-5.414062.804688 7.664062 2.324219 13.25 9.4375 13.25 17.863281s-5.585938 15.542969-13.25 17.863281c1.714843.519531 3.53125.804688 5.414062.804688 10.3125 0 18.667969-8.359375 18.667969-18.667969s-8.355469-18.667969-18.667969-18.667969zm0 0" fill="#00a2ff"/><path d="m96.3125 331.5c-8.894531 0-16.101562-7.210938-16.101562-16.101562v-90.488282c0-8.890625 7.207031-16.101562 16.101562-16.101562s16.101562 7.210937 16.101562 16.101562v90.488282c0 8.890624-7.207031 16.101562-16.101562 16.101562zm0 0" fill="#fad200"/><path d="m96.3125 208.808594c-2.9375 0-5.679688.800781-8.050781 2.171875 4.808593 2.785156 8.050781 7.972656 8.050781 13.929687v90.488282c0 5.957031-3.242188 11.144531-8.050781 13.929687 2.371093 1.371094 5.113281 2.171875 8.050781 2.171875 8.894531 0 16.101562-7.210938 16.101562-16.101562v-90.488282c0-8.890625-7.207031-16.101562-16.101562-16.101562zm0 0" fill="#fab700"/><path d="m141.554688 286.257812h-90.484376c-8.894531 0-16.101562-7.210937-16.101562-16.105468 0-8.890625 7.207031-16.101563 16.101562-16.101563h90.484376c8.890624 0 16.101562 7.210938 16.101562 16.101563 0 8.894531-7.210938 16.105468-16.101562 16.105468zm0 0" fill="#fad200"/><path d="m141.554688 270.152344h-90.484376c-5.957031 0-11.144531-3.242188-13.929687-8.050782-1.375 2.371094-2.171875 5.117188-2.171875 8.050782 0 8.894531 7.207031 16.105468 16.101562 16.105468h90.484376c8.890624 0 16.101562-7.210937 16.101562-16.105468 0-2.933594-.800781-5.679688-2.171875-8.050782-2.785156 4.808594-7.972656 8.050782-13.929687 8.050782zm0 0" fill="#fab700"/><path d="m375.335938 94.886719c-6.398438 0-21.230469 5.972656-34.347657 11.886719v-43.207032c0-3.464844-2.808593-6.277344-6.273437-6.277344h-38.03125c5.914062-13.117187 11.890625-27.949218 11.890625-34.347656 0-12.667968-10.488281-22.941406-23.429688-22.941406-12.9375 0-23.425781 10.273438-23.425781 22.941406 0 6.398438 5.972656 21.230469 11.886719 34.347656h-38.027344c-3.46875 0-6.277344 2.8125-6.277344 6.277344v27.8125c0 4.277344 4.179688 7.34375 8.242188 5.996094 4.621093-1.53125 8.539062-2.488281 11.101562-2.488281 12.671875 0 22.945313 10.488281 22.945313 23.425781 0 12.941406-10.273438 23.429688-22.945313 23.429688-2.5625 0-6.480469-.960938-11.101562-2.492188-4.0625-1.34375-8.242188 1.722656-8.242188 5.996094v27.8125c0 3.46875 2.808594 6.277344 6.277344 6.277344h37.988281c-5.902344 13.09375-11.847656 27.875-11.847656 34.261718 0 12.667969 10.488281 22.941406 23.425781 22.941406 12.941407 0 23.429688-10.273437 23.429688-22.941406 0-6.386718-5.949219-21.164062-11.847657-34.261718h37.988282c3.464844 0 6.273437-2.808594 6.273437-6.277344v-43.203125c13.117188 5.914062 27.949219 11.886719 34.347657 11.886719 12.671874 0 22.941406-10.488282 22.941406-23.429688 0-12.9375-10.269532-23.425781-22.941406-23.425781zm0 0" fill="#f7c6ba"/><path d="m270.273438 484.882812-18.535157 18.539063c-2.34375 2.339844-6.140625 2.339844-8.484375 0l-49.785156-49.789063 27.023438-27.019531 49.785156 49.785157c2.339844 2.34375 2.339844 6.140624-.003906 8.484374zm0 0" fill="#9af1ff"/><path d="m270.273438 484.882812-9.265626 9.269532-54.03125-54.03125 13.511719-13.507813 49.785157 49.785157c2.34375 2.34375 2.34375 6.140624 0 8.484374zm0 0" fill="#32e4ff"/><path d="m121.34375 362.695312 60.714844 145.449219c2.070312 4.953125 8.996094 5.191407 11.402344.390625l27.347656-54.578125 54.582031-27.347656c4.796875-2.40625 4.558594-9.335937-.394531-11.402344l-145.445313-60.71875c-5.175781-2.160156-10.367187 3.03125-8.207031 8.207031zm0 0" fill="#9af1ff"/><path d="m259.640625 434.496094 15.75-7.890625c4.796875-2.402344 4.558594-9.332031-.394531-11.398438l-145.445313-60.71875c-5.175781-2.160156-10.371093 3.03125-8.210937 8.207031l7.113281 17.035157zm0 0" fill="#32e4ff"/><path d="m375.335938 94.886719c-1.886719 0-4.511719.519531-7.605469 1.40625 8.804687 3.273437 15.09375 11.894531 15.09375 22.019531s-6.289063 18.75-15.09375 22.023438c3.09375.882812 5.71875 1.40625 7.605469 1.40625 12.671874 0 22.941406-10.488282 22.941406-23.429688 0-12.9375-10.269532-23.425781-22.941406-23.425781zm0 0" fill="#f4ada5"/><path d="m334.714844 57.289062h-17.15625v101.652344c0 3.464844-2.808594 6.273438-6.273438 6.273438h-81.980468v7.84375c0 3.46875 2.808593 6.277344 6.273437 6.277344h49.179687c5.902344 13.09375 11.847657 27.875 11.847657 34.261718 0 10.644532-7.402344 19.59375-17.445313 22.183594 1.910156.492188 3.917969.757812 5.984375.757812 12.941407 0 23.429688-10.273437 23.429688-22.941406 0-6.386718-5.949219-21.164062-11.847657-34.261718h37.988282c3.464844 0 6.273437-2.808594 6.273437-6.277344v-109.492188c0-3.464844-2.808593-6.277344-6.273437-6.277344zm0 0" fill="#f4ada5"/><path d="m296.605469 22.941406c0 6.398438-5.976563 21.230469-11.890625 34.347656h11.96875c5.914062-13.117187 11.890625-27.949218 11.890625-34.347656 0-12.667968-10.488281-22.941406-23.429688-22.941406-2.066406 0-4.074219.265625-5.984375.757812 10.039063 2.589844 17.445313 11.539063 17.445313 22.183594zm0 0" fill="#f4ada5"/></svg>